<svg width="577" height="433" viewBox="0 0 577 433" fill="none" xmlns="http://www.w3.org/2000/svg">
<path d="M539.83 333.873L419.848 344.001V310.5H425.302L453.35 297.255L461.92 285.569V188.96V157.796L466.594 148.446H558.529V168.703C558.529 171.82 548.66 203.763 543.726 219.345C540.609 234.408 534.688 265 535.935 266.87C537.181 268.74 539.051 312.318 539.83 333.873Z" fill="white"/>
<path d="M424.027 17.0681C426.128 16.8675 429.273 16.8422 431.407 16.8077C466.164 16.4091 499.656 29.8237 524.526 54.1061C559.008 87.5813 571.21 139.935 558.554 185.697C553.604 203.591 545.365 219.701 542.569 237.836C540.463 251.493 541.064 266.711 541.064 280.665C540.992 298.706 541.054 316.749 541.25 334.789L533.498 334.435C533.186 316.595 533.049 298.753 533.088 280.909C533.068 264.847 532.467 247.586 535.415 231.854C537.918 218.5 543.46 206.752 547.75 193.986C552.438 180.032 554.276 166.834 555.686 152.338C528.898 151.904 500.633 152.307 473.744 152.307C470.861 155.772 470.545 156.276 466.883 159.006C466.616 167.326 466.682 176.152 466.614 184.513C466.549 216.083 465.987 249.461 466.734 280.851C480.67 291.714 469.986 307.732 454.947 298.951C443.025 305.622 436.353 307.991 423.495 311.575L423.602 345.871L415.819 345.855C415.908 334.695 415.826 323.535 415.572 312.377L372.663 312.498C361.742 312.5 351.973 312.133 342.35 306.488C322.883 295.069 325.075 271.195 325.122 252.322L325.209 221.647C290.994 216.543 286.889 213.899 301.046 179.662C302.759 175.517 314.308 148.41 314.522 145.737C316.128 125.784 314.449 114.481 321.414 94.3589C325.592 82.2729 331.87 71.017 339.961 61.1136C360.996 35.8176 391.256 19.9627 424.027 17.0681Z" fill="white"/>
<path d="M334.425 83.9281C339.069 84.8606 354.035 84.5803 359.242 84.5764C374.488 84.502 389.731 84.5471 404.975 84.7118C409.885 90.7894 410.419 91.4164 418.421 91.4576C430.015 107.602 441.666 126.065 453.358 142.807C450.769 148.234 450.777 148.778 453.085 154.478C438.243 177.167 421.863 205.611 408.134 229.022L404.662 234.636L403.353 234.717C397.131 235.056 395.487 236.36 392.238 241.564C373.318 242.101 352.159 241.556 333.075 241.471C333.046 235.202 333.707 222.814 332.467 216.854C331.239 210.957 310.182 213.683 305.344 209.832C304.45 209.12 301.046 206.832 301.406 205.012C305.319 185.27 317.231 164.076 323.421 144.711C324.302 141.955 323.64 131.637 323.636 128.712C323.61 111.973 326.769 98.6272 334.425 83.9281Z" fill="#FCFCFC" stroke="#FF0000" stroke-width="4"/>
<path d="M366.582 105.284C381.577 104.266 393.362 106.741 404.979 116.827C403.786 118.722 401.836 121.029 400.409 122.826C393.558 117.859 391.631 116.736 383.591 114.24C369.91 110.506 360.276 114 348.63 120.744C347.217 118.53 345.906 116.024 344.634 113.71C352.021 108.998 358.089 106.895 366.582 105.284Z" fill="#FF0000"/>
<path d="M368.637 134.114C373.795 132.356 379.404 135.097 381.188 140.244C382.973 145.393 380.263 151.017 375.124 152.829C369.945 154.654 364.27 151.919 362.473 146.731C360.674 141.544 363.44 135.883 368.637 134.114Z" fill="#FF0000"/>
<path d="M466.432 29.2219C482.059 33.2378 500.641 43.5013 512.7 54.0769C541.509 79.3384 552.573 107.331 555.672 144.345L473.012 144.416L472.198 143.411C470.002 140.657 469.816 140.612 466.783 138.521C465.864 103.233 466.519 64.7495 466.432 29.2219Z" fill="#FCFCFC"/>
<path d="M425.758 25.0387C434.711 23.6744 449.742 25.4997 458.561 27.1868L458.623 137.026C458.623 141.5 433.961 100.822 424.632 86.4946C425.831 83.2931 425.85 82.6993 426.029 79.2626C422.675 68.0321 411.306 66.4566 404.968 76.6709L339.19 76.5938C356.033 46.4238 392.286 28.2894 425.758 25.0387Z" fill="#FCFCFC" stroke="#FF0000" stroke-width="4"/>
<path d="M458.341 160.727C459.143 163.545 458.618 192.578 458.596 198.046C458.685 226.097 458.621 254.148 458.402 282.199C451.955 278.353 438.944 267.71 432.496 262.701C426.636 258.295 419.493 253.318 414.631 247.922C414.768 248.075 413.631 241.669 411.822 238.822C419.663 224.454 428.94 209.537 437.39 195.508C444.293 184.049 451.232 171.961 458.341 160.727Z" fill="#FCFCFC"/>
<path d="M333.028 249.289C341.937 249.258 388.433 247.948 393.018 251.149C393.505 255.847 381.338 282.748 378.556 289.296L372.076 304.99C365.159 304.631 358.804 304.52 352.215 302.184C329.286 294.053 332.882 268.532 333.028 249.289Z" fill="#FCFCFC" stroke="#FF0000" stroke-width="4"/>
<path d="M409.355 254.157C416.759 260.042 448.303 284.304 452.017 289.317L451.773 290.579C446.908 296.271 429.809 301.794 422.5 303.599C414.308 305.181 390.207 304.755 380.82 304.792C386.515 290.599 392.704 276.467 398.331 262.242C402.198 252.466 402.346 258.699 409.355 254.157Z" fill="#FCFCFC" stroke="#FF0000" stroke-width="4" stroke-linejoin="round"/>
<path d="M118.306 47.4325C132.495 47.2521 146.453 47.1781 157.193 47.4657C162.567 47.6096 167.104 47.8432 170.45 48.1952C172.126 48.3715 173.465 48.5736 174.446 48.7987C174.936 48.9113 175.306 49.0225 175.569 49.1258C175.616 49.1443 175.656 49.1629 175.691 49.1786C176.718 51.8931 176.647 55.0519 176.654 58.7332C176.757 120.376 176.67 182.125 176.71 243.761V243.763L176.791 299.306C176.799 306.653 176.884 314.825 176.61 322.261L176.55 323.737C176.48 325.332 175.753 326.14 174.556 327.423C144.377 328.371 111.675 327.504 81.265 327.501L43.3412 327.497H43.3402C36.7783 327.499 30.3368 327.615 23.8666 327.332L22.5717 327.27C21.3112 327.205 20.4757 326.965 19.9047 326.641C19.362 326.334 18.9701 325.902 18.6693 325.267C18.0019 323.859 17.8396 321.624 17.8383 318.113C17.8142 270.584 17.8297 223.046 17.8207 175.512L17.8011 127.978L17.7758 75.3426C17.7731 67.9482 17.6739 59.5402 17.9506 52.1737C18.0244 50.2207 18.8496 49.3062 20.2172 47.8944C23.2995 47.7432 30.7155 47.5896 37.9418 47.5243C41.7948 47.4894 45.5766 47.4792 48.5941 47.5067C51.6698 47.5348 53.8156 47.6016 54.5043 47.7V47.701C56.116 47.9327 59.1663 48.0431 63.1683 48.0848C67.2079 48.1269 72.3196 48.0987 78.1205 48.0321C89.6985 47.8991 104.151 47.6124 118.306 47.4325Z" fill="#FCFCFC" stroke="#EC0000" stroke-width="3"/>
<path d="M24.5101 54.9839C39.9029 53.9851 59.0848 54.6654 74.6631 54.6634L168.759 54.7952C169.503 85.1178 168.917 120.19 168.902 150.997L168.833 295.669C121.026 296.332 72.3459 295.677 24.4805 295.549C24.4926 215.833 23.873 134.574 24.5101 54.9839Z" fill="#EC0000"/>
<path d="M26.9861 58.1115L165.905 58L165.986 291.734C119.669 292.156 73.35 292.076 27.0341 291.497L26.9861 58.1115Z" fill="#FCFCFC"/>
<path d="M90.8923 134.238C113.658 130.368 135.213 145.798 138.887 168.597C142.562 191.394 126.947 212.816 104.118 216.295C81.5654 219.732 60.4592 204.346 56.8286 181.824C53.198 159.302 68.402 138.063 90.8923 134.238Z" fill="#E30613"/>
<path d="M95.2324 141.506C113.728 140.069 129.911 153.843 131.445 172.332C132.98 190.821 119.289 207.076 100.808 208.706C82.1912 210.348 65.7917 196.534 64.2454 177.909C62.7004 159.284 76.5998 142.955 95.2324 141.506Z" fill="#FCFCFC"/>
<path d="M114.626 158.746C116.62 159.577 119.068 162.417 120.77 164.097C112.566 172.396 101.577 184.165 93.0072 191.589L82.3067 181.44L76.6038 175.865L81.6492 170.217C85.6052 173.423 89.2531 177.14 92.893 180.712C100.013 173.269 107.259 165.946 114.626 158.746Z" fill="#E30613"/>
<path d="M95.9829 306.154C100.007 305.351 103.916 307.976 104.697 312.004C105.477 316.033 102.831 319.928 98.7978 320.687C94.7966 321.439 90.9388 318.816 90.1644 314.82C89.3899 310.823 91.9896 306.951 95.9829 306.154Z" fill="#EC0000"/>
<path d="M127.758 338.518C127.743 350.471 127.809 362.426 127.957 374.38C107.483 374.592 87.0067 374.605 66.5328 374.419L66.3931 338.465L127.758 338.518Z" fill="#FCFCFC" stroke="#EC0000" stroke-width="3"/>
<path d="M155.455 385.186C155.439 389.498 155.405 393.809 155.35 398.121C116.534 398.709 76.3725 398.179 37.4188 398.16C37.4196 393.816 37.4513 389.471 37.5154 385.128L155.455 385.186Z" fill="#FCFCFC" stroke="#EC0000" stroke-width="3"/>
<path d="M304.972 424.391L305.089 432.486C208.052 431.287 110.569 433.213 13.4965 432.519C9.96416 432.494 4.13634 432.933 0.964042 431.896C-0.46668 429.611 0.105866 427.664 0.149704 424.558L304.972 424.391Z" fill="white"/>
<path d="M191.987 77.7866L265.163 77.6021C268.961 77.6021 290.561 77.3019 292.559 78.1166C293.317 80.1243 293.071 82.987 293.051 85.3391C259.311 85.0675 225.57 85.0259 191.829 85.2169C191.786 82.9831 191.927 80.0749 191.987 77.7866Z" fill="white"/>
<path d="M526.047 0.190353C542.21 -0.194893 559.756 0.149205 576.023 0.166474C576.702 14.2239 577.023 37.1367 576.391 50.6881C573.262 50.7226 572.3 50.716 569.241 50.2404C567.721 47.7217 568.416 14.2385 568.374 8.32169C562.012 8.21143 529.401 9.40038 526.428 7.25097C525.419 4.92622 525.856 2.75688 526.047 0.190353Z" fill="white"/>
<path d="M568.868 308.478C571.327 308.328 573.538 307.895 575.667 309C577.432 313.375 576.67 351.892 576.337 358.857L532.061 358.968C529.845 359.028 528.293 359.375 526.532 358.154C525.354 356.097 525.979 353.439 526.228 350.952C540.271 350.705 554.646 350.806 568.73 350.676C568.688 337.083 568.322 321.95 568.868 308.478Z" fill="white"/>
<path d="M250.703 307.857C253.295 307.793 255.025 307.453 257.259 308.692C259.069 311.907 258.359 344.555 258.349 350.43C272.448 350.582 286.471 350.414 300.599 350.716C300.895 353.923 300.907 355.294 300.721 358.511C284.788 358.742 266.271 358.938 250.432 358.231C250.376 344.723 249.58 320.525 250.703 307.857Z" fill="white"/>
<path d="M250.635 0.20501C260.487 0.198368 291.466 -0.447258 299.642 0.587591C300.701 2.79677 300.401 5.65423 300.394 8.18623L258.499 8.16762C258 19.6068 259.432 38.7123 257.797 48.8496L256.827 49.3823C253.891 49.4474 253.532 49.5735 250.85 48.5945C249.809 44.289 250.453 6.70104 250.635 0.20501Z" fill="white"/>
<path d="M214.191 108.505L292.777 108.578L292.931 116.443L214.138 116.434L214.191 108.505Z" fill="white"/>
<path d="M322.283 424.14L347.011 424.185L347.143 432.538L322.219 432.472L322.283 424.14Z" fill="white"/>
</svg>
